<svg xmlns="http://www.w3.org/2000/svg" width="1400" height="1120" viewBox="0 0 1400 1120">
  <style>
    .serif { font-family: Georgia, 'Times New Roman', serif; fill: #1d1d1a; }
    .sans { font-family: Arial, Helvetica, sans-serif; fill: #1d1d1a; }
    .muted { fill: #726b61; }
    .number { font-family: Arial, Helvetica, sans-serif; fill: #8d806d; font-size: 10px; letter-spacing: 2px; }
    .title { font-family: Georgia, 'Times New Roman', serif; fill: #1d1d1a; font-size: 29px; }
    .price { font-family: Arial, Helvetica, sans-serif; fill: #1d1d1a; font-size: 28px; font-weight: 700; letter-spacing: -1px; }
    .old { font-family: Arial, Helvetica, sans-serif; fill: #726b61; font-size: 10px; text-decoration: line-through; }
    .small { font-family: Arial, Helvetica, sans-serif; fill: #726b61; font-size: 9px; }
    .cta { font-family: Arial, Helvetica, sans-serif; fill: #1d1d1a; font-size: 11px; font-weight: 700; }
    .line { stroke: #b7975b; stroke-width: 1; }
  </style>
  <!-- Corpos dos cards, sobrepostos às fotografias -->
  <g fill="#f7f3ec">
    <rect x="70" y="190" width="300" height="310" rx="16"/>
    <rect x="390" y="190" width="300" height="310" rx="16"/>
    <rect x="710" y="190" width="300" height="310" rx="16"/>
    <rect x="1030" y="190" width="300" height="310" rx="16"/>
    <rect x="70" y="690" width="300" height="310" rx="16"/>
    <rect x="390" y="690" width="300" height="310" rx="16"/>
    <rect x="710" y="690" width="300" height="310" rx="16"/>
    <rect x="1030" y="690" width="300" height="310" rx="16"/>
  </g>
  <g fill="none" stroke="#cfc5b6">
    <rect x="70" y="20" width="300" height="480" rx="16"/>
    <rect x="390" y="20" width="300" height="480" rx="16"/>
    <rect x="710" y="20" width="300" height="480" rx="16"/>
    <rect x="1030" y="20" width="300" height="480" rx="16"/>
    <rect x="70" y="520" width="300" height="480" rx="16"/>
    <rect x="390" y="520" width="300" height="480" rx="16"/>
    <rect x="710" y="520" width="300" height="480" rx="16"/>
    <rect x="1030" y="520" width="300" height="480" rx="16"/>
  </g>

  <!-- Linha 1 -->
  <g transform="translate(70 20)">
    <text x="24" y="208" class="number">01</text><line x1="49" y1="204" x2="77" y2="204" class="line"/>
    <text x="24" y="248" class="title">Manicure + pedicure</text>
    <text x="24" y="326" class="old">DE R$ 80,00</text><text x="24" y="361" class="price">R$ 70,00</text>
    <text x="24" y="437" class="cta">AGENDAR  ↗</text><line x1="24" y1="447" x2="107" y2="447" class="line"/>
  </g>
  <g transform="translate(390 20)">
    <text x="24" y="208" class="number">02</text><line x1="49" y1="204" x2="77" y2="204" class="line"/>
    <text x="24" y="243" class="title">Escova +</text><text x="24" y="276" class="title">higienização Wella</text>
    <text x="24" y="345" class="price">R$ 100,00</text>
    <text x="24" y="374" class="small">Exceto cabelo extra longo ou com mega hair.</text>
    <text x="24" y="437" class="cta">AGENDAR  ↗</text><line x1="24" y1="447" x2="107" y2="447" class="line"/>
  </g>
  <g transform="translate(710 20)">
    <text x="24" y="208" class="number">03</text><line x1="49" y1="204" x2="77" y2="204" class="line"/>
    <text x="24" y="248" class="title">Sobrancelhas</text>
    <text x="24" y="326" class="old">DE R$ 40,00</text><text x="24" y="361" class="price">R$ 30,00</text>
    <text x="24" y="437" class="cta">AGENDAR  ↗</text><line x1="24" y1="447" x2="107" y2="447" class="line"/>
  </g>
  <g transform="translate(1030 20)">
    <text x="24" y="208" class="number">04</text><line x1="49" y1="204" x2="77" y2="204" class="line"/>
    <text x="24" y="243" class="title">Alongamento</text><text x="24" y="276" class="title">de cílios</text>
    <text x="24" y="298" class="small">Fio a fio ou brasileiro</text>
    <text x="24" y="326" class="old">DE R$ 180,00</text><text x="24" y="361" class="price">R$ 150,00</text>
    <text x="24" y="437" class="cta">AGENDAR  ↗</text><line x1="24" y1="447" x2="107" y2="447" class="line"/>
  </g>

  <!-- Linha 2 -->
  <g transform="translate(70 520)">
    <text x="24" y="208" class="number">05</text><line x1="49" y1="204" x2="77" y2="204" class="line"/>
    <text x="24" y="248" class="title">Selagem feminina</text>
    <text x="24" y="326" class="small" letter-spacing="1.5">A PARTIR DE</text><text x="24" y="361" class="price">R$ 200,00</text>
    <text x="24" y="437" class="cta">AGENDAR  ↗</text><line x1="24" y1="447" x2="107" y2="447" class="line"/>
  </g>
  <g transform="translate(390 520)">
    <text x="24" y="208" class="number">06</text><line x1="49" y1="204" x2="77" y2="204" class="line"/>
    <text x="24" y="241" class="title">Hidratação Wella</text><text x="24" y="273" class="title">ou L’Oréal + escova</text>
    <text x="24" y="345" class="price">R$ 180,00</text>
    <text x="24" y="374" class="small">Exceto cabelo extra longo ou com mega hair.</text>
    <text x="24" y="437" class="cta">AGENDAR  ↗</text><line x1="24" y1="447" x2="107" y2="447" class="line"/>
  </g>
  <g transform="translate(710 520)">
    <text x="24" y="208" class="number">07</text><line x1="49" y1="204" x2="77" y2="204" class="line"/>
    <text x="24" y="248" class="title">Corte feminino</text>
    <text x="24" y="326" class="old">DE R$ 120,00</text><text x="24" y="361" class="price">R$ 100,00</text>
    <text x="24" y="437" class="cta">AGENDAR  ↗</text><line x1="24" y1="447" x2="107" y2="447" class="line"/>
  </g>
  <g transform="translate(1030 520)">
    <text x="24" y="208" class="number">08</text><line x1="49" y1="204" x2="77" y2="204" class="line"/>
    <text x="24" y="248" class="title">Mega hair</text>
    <text x="24" y="326" class="small" letter-spacing="1.5">A PARTIR DE</text><text x="24" y="361" class="price">R$ 1.000,00</text>
    <text x="24" y="437" class="cta">AGENDAR  ↗</text><line x1="24" y1="447" x2="107" y2="447" class="line"/>
  </g>

  <text x="70" y="1054" class="sans muted" font-size="11">Ofertas válidas de segunda a quarta, exceto feriados. Consulte vigência, disponibilidade e formas de pagamento pelo WhatsApp.</text>
  <text x="1330" y="1054" class="sans muted" font-size="10" text-anchor="end">FOTOS ILUSTRATIVAS PARA DEFINIÇÃO DO LAYOUT</text>
</svg>
